<svg width="24" height="24" viewBox="0 0 24 24" fill="none" xmlns="http://www.w3.org/2000/svg">
<path d="M22.4004 5.54767C21.6348 5.88768 20.8124 6.11648 19.9492 6.21968C20.8308 5.69168 21.5068 4.85568 21.8252 3.85888C21.0012 4.34768 20.0876 4.70288 19.1148 4.89487C18.3364 4.06528 17.2276 3.54688 16.0004 3.54688C13.6436 3.54688 11.7332 5.45808 11.7332 7.81408C11.7332 8.14848 11.7716 8.47487 11.8436 8.78608C8.29721 8.60847 5.15321 6.90927 3.04761 4.32687C2.68121 4.95727 2.47081 5.69008 2.47081 6.47327C2.47081 7.95328 3.22361 9.25968 4.36841 10.0245C3.66921 10.0021 3.01081 9.81008 2.43561 9.49088C2.43561 9.50928 2.43561 9.52607 2.43561 9.54448C2.43561 11.6125 3.90601 13.3373 5.85881 13.7285C5.50121 13.8261 5.12361 13.8781 4.73401 13.8781C4.45961 13.8781 4.19161 13.8509 3.93161 13.8021C4.47481 15.4973 6.05081 16.7317 7.91801 16.7661C6.45801 17.9109 4.61801 18.5933 2.61801 18.5933C2.27401 18.5933 1.93401 18.5733 1.59961 18.5333C3.48841 19.7437 5.73081 20.4501 8.14121 20.4501C15.9908 20.4501 20.282 13.9477 20.282 8.30848C20.282 8.12367 20.278 7.93968 20.27 7.75647C21.1044 7.15408 21.8284 6.40287 22.4004 5.54767Z" fill="#5B818D"/>
</svg>
