<svg width="24" height="24" viewBox="0 0 24 24" fill="none" xmlns="http://www.w3.org/2000/svg">
<path d="M10.9005 2.10047C6.3005 2.60047 2.6005 6.30047 2.1005 10.8005C1.6005 15.5005 4.3005 19.7005 8.4005 21.3005C8.7005 21.4005 9.0005 21.2005 9.0005 20.8005V19.2005C9.0005 19.2005 8.6005 19.3005 8.1005 19.3005C6.7005 19.3005 6.1005 18.1005 6.0005 17.4005C5.9005 17.0005 5.7005 16.7005 5.4005 16.4005C5.1005 16.3005 5.0005 16.3005 5.0005 16.2005C5.0005 16.0005 5.3005 16.0005 5.4005 16.0005C6.0005 16.0005 6.5005 16.7005 6.7005 17.0005C7.2005 17.8005 7.8005 18.0005 8.1005 18.0005C8.5005 18.0005 8.8005 17.9005 9.0005 17.8005C9.1005 17.1005 9.4005 16.4005 10.0005 16.0005C7.7005 15.5005 6.0005 14.2005 6.0005 12.0005C6.0005 10.9005 6.5005 9.80047 7.2005 9.00047C7.1005 8.80047 7.0005 8.30047 7.0005 7.60047C7.0005 7.20047 7.0005 6.60047 7.3005 6.00047C7.3005 6.00047 8.7005 6.00047 10.1005 7.30047C10.6005 7.10047 11.3005 7.00047 12.0005 7.00047C12.7005 7.00047 13.4005 7.10047 14.0005 7.30047C15.3005 6.00047 16.8005 6.00047 16.8005 6.00047C17.0005 6.60047 17.0005 7.20047 17.0005 7.60047C17.0005 8.40047 16.9005 8.80047 16.8005 9.00047C17.5005 9.80047 18.0005 10.8005 18.0005 12.0005C18.0005 14.2005 16.3005 15.5005 14.0005 16.0005C14.6005 16.5005 15.0005 17.4005 15.0005 18.3005V20.9005C15.0005 21.2005 15.3005 21.5005 15.7005 21.4005C19.4005 19.9005 22.0005 16.3005 22.0005 12.1005C22.0005 6.10047 16.9005 1.40047 10.9005 2.10047Z" fill="#5B818D"/>
</svg>
