<svg width="24" height="24" viewBox="0 0 24 24" fill="none" xmlns="http://www.w3.org/2000/svg">
<path d="M12.0004 2.39844C6.69879 2.39844 2.40039 6.69684 2.40039 11.9984C2.40039 17.3 6.69879 21.5984 12.0004 21.5984C17.302 21.5984 21.6004 17.3 21.6004 11.9984C21.6004 6.69684 17.302 2.39844 12.0004 2.39844ZM8.39719 6.72084C9.07079 6.72084 9.51959 7.16964 9.51959 7.76804C9.51959 8.36644 9.07079 8.81524 8.32279 8.81524C7.64919 8.81604 7.20039 8.36644 7.20039 7.76804C7.20039 7.16964 7.64919 6.72084 8.39719 6.72084ZM9.60039 15.9984H7.20039V9.59844H9.60039V15.9984ZM17.6004 15.9984H15.3412V12.5008C15.3412 11.5336 14.7388 11.3104 14.5132 11.3104C14.2876 11.3104 13.534 11.4592 13.534 12.5008C13.534 12.6496 13.534 15.9984 13.534 15.9984H11.2004V9.59844H13.5348V10.4912C13.8356 9.97044 14.438 9.59844 15.5676 9.59844C16.6972 9.59844 17.6004 10.4912 17.6004 12.5008V15.9984Z" fill="#5B818D"/>
</svg>
