<svg width="30" height="30" viewBox="0 0 30 30" fill="none" xmlns="http://www.w3.org/2000/svg">
<path d="M13.3162 0.107096C6.40219 0.880737 0.840926 6.60568 0.0894036 13.5685C-0.662119 20.8407 3.3961 27.3393 9.55859 29.8149C10.0095 29.9696 10.4604 29.6602 10.4604 29.0413V26.5656C10.4604 26.5656 9.8592 26.7204 9.10767 26.7204C7.00341 26.7204 6.10158 24.8636 5.95128 23.7805C5.80097 23.1616 5.50037 22.6974 5.04945 22.2332C4.59854 22.0785 4.44823 22.0785 4.44823 21.9238C4.44823 21.6143 4.89915 21.6143 5.04945 21.6143C5.95128 21.6143 6.7028 22.6974 7.00341 23.1616C7.75493 24.3994 8.65676 24.7089 9.10767 24.7089C9.70889 24.7089 10.1598 24.5542 10.4604 24.3994C10.6107 23.3163 11.0616 22.2332 11.9635 21.6143C8.50646 20.8407 5.95128 18.8292 5.95128 15.4252C5.95128 13.7232 6.7028 12.0212 7.75493 10.7833C7.60463 10.4739 7.45432 9.70025 7.45432 8.61715C7.45432 7.99824 7.45432 7.06987 7.90524 6.1415C7.90524 6.1415 10.0095 6.1415 12.1138 8.15297C12.8653 7.84351 13.9174 7.68878 14.9695 7.68878C16.0217 7.68878 17.0738 7.84351 17.9756 8.15297C19.9296 6.1415 22.1842 6.1415 22.1842 6.1415C22.4848 7.06987 22.4848 7.99824 22.4848 8.61715C22.4848 9.85498 22.3345 10.4739 22.1842 10.7833C23.2363 12.0212 23.9878 13.5685 23.9878 15.4252C23.9878 18.8292 21.4326 20.8407 17.9756 21.6143C18.8775 22.388 19.4787 23.7805 19.4787 25.1731V29.196C19.4787 29.6602 19.9296 30.1244 20.5308 29.9696C26.0921 27.6487 30 22.0785 30 15.5799C30 6.29623 22.3345 -0.976002 13.3162 0.107096Z" fill="#3C4C66"/>
</svg>
