<svg width="335" height="1041" viewBox="0 0 335 1041" fill="none" xmlns="http://www.w3.org/2000/svg">
<path d="M89 761.368C89 737.969 71.9868 719 51 719C30.0132 719 13 737.969 13 761.368L13 998.632C13 1022.03 30.0132 1041 51 1041C71.9868 1041 89 1022.03 89 998.632L89 761.368Z" fill="#73607C"/>
<path d="M55.5758 719C32.0618 719 13 736.013 13 757C13 777.987 32.0618 795 55.5758 795H292.424C315.938 795 335 777.987 335 757C335 736.013 315.938 719 292.424 719H55.5758Z" fill="#73607C"/>
<path d="M89 50.2523C89 31.8811 71.9868 16.9883 51 16.9883C30.0132 16.9883 13 31.8811 13 50.2523V305.724C13 324.095 30.0132 338.988 51 338.988C71.9868 338.988 89 324.095 89 305.724V50.2523Z" fill="#334E78"/>
<path d="M86.5949 26.7161C75.1201 11.9612 51.0841 8.50659 32.909 19C14.7338 29.4934 9.30217 49.9612 20.777 64.7161L211.511 309.972C222.986 324.727 247.022 328.182 265.197 317.688C283.372 307.195 288.804 286.727 277.329 271.972L86.5949 26.7161Z" fill="#FA8D70"/>
<path d="M13 644V644C13 664.987 29.9303 682 50.815 682H51.185C72.0697 682 89 664.987 89 644V644C89 623.013 72.0697 606 51.185 606H50.815C29.9303 606 13 623.013 13 644Z" fill="#FCC666"/>
</svg>
