<svg width="1440" height="472" viewBox="0 0 1440 472" fill="none" xmlns="http://www.w3.org/2000/svg">
<g clip-path="url(#clip0_144_88)">
<path d="M1188 338C1154.86 338 1128 364.863 1128 398C1128 431.137 1154.86 458 1188 458H1524C1557.14 458 1584 431.137 1584 398C1584 364.863 1557.14 338 1524 338H1188Z" fill="#73607C"/>
<path d="M962 398.706V398.706C962 431.682 988.732 458.414 1021.71 458.414H1022.29C1055.27 458.414 1082 431.682 1082 398.706V398.706C1082 365.73 1055.27 338.998 1022.29 338.998H1021.71C988.732 338.998 962 365.73 962 398.706Z" fill="#FCC666"/>
<path d="M1248 60C1248 26.8629 1221.14 0 1188 0C1154.86 0 1128 26.8629 1128 60V393.779C1128 426.916 1154.86 453.779 1188 453.779C1221.14 453.779 1248 426.916 1248 393.779V60Z" fill="#73607C"/>
<path d="M-10.3713 331.001C-42.751 331.001 -69 357.25 -69 389.629C-69 422.009 -42.751 448.258 -10.3713 448.258L439.904 448.258C472.284 448.258 498.533 422.009 498.533 389.629C498.533 357.25 472.284 331.001 439.904 331.001H-10.3713Z" fill="#334E78"/>
<path d="M-41.9093 334.352C-68.4686 352.328 -78.5127 390.224 -64.3434 418.995C-50.174 447.766 -17.1569 456.517 9.40237 438.541L450.871 139.738C477.431 121.761 487.475 83.8651 473.305 55.0941C459.136 26.3231 426.119 17.5722 399.56 35.5486L-41.9093 334.352Z" fill="#FA8D70"/>
</g>
<defs>
<clipPath id="clip0_144_88">
<rect width="1440" height="472" fill="white"/>
</clipPath>
</defs>
</svg>
