<svg width="338" height="934" viewBox="0 0 338 934" fill="none" xmlns="http://www.w3.org/2000/svg">
<path d="M92 654.368C92 630.969 74.9868 612 54 612C33.0132 612 16 630.969 16 654.368L16 891.632C16 915.031 33.0132 934 54 934C74.9868 934 92 915.031 92 891.632L92 654.368Z" fill="#73607C"/>
<path d="M58.5758 612C35.0618 612 16 629.013 16 650C16 670.987 35.0618 688 58.5758 688H295.424C318.938 688 338 670.987 338 650C338 629.013 318.938 612 295.424 612H58.5758Z" fill="#73607C"/>
<path d="M92 48.264C92 29.8928 74.9868 15 54 15C33.0132 15 16 29.8928 16 48.264V303.736C16 322.107 33.0132 337 54 337C74.9868 337 92 322.107 92 303.736V48.264Z" fill="#334E78"/>
<path d="M86.5949 26.7161C75.1201 11.9612 51.0841 8.50659 32.909 19C14.7338 29.4934 9.30217 49.9612 20.777 64.7161L211.511 309.972C222.986 324.727 247.022 328.182 265.197 317.688C283.372 307.195 288.804 286.727 277.329 271.972L86.5949 26.7161Z" fill="#FA8D70"/>
<path d="M16 540V540C16 560.987 32.9303 578 53.815 578H54.185C75.0697 578 92 560.987 92 540V540C92 519.013 75.0697 502 54.185 502H53.815C32.9303 502 16 519.013 16 540Z" fill="#FCC666"/>
</svg>
