<svg width="664" height="97" viewBox="0 0 664 97" fill="none" xmlns="http://www.w3.org/2000/svg">
<path d="M13.4708 60.324C12.1028 60.324 10.9508 60.084 10.0148 59.604C9.10284 59.1 8.41884 58.38 7.96284 57.444C7.50684 56.484 7.27884 55.32 7.27884 53.952V44.772H4.86684C4.45884 44.772 4.14684 44.676 3.93084 44.484C3.71484 44.268 3.60684 43.98 3.60684 43.62C3.60684 43.26 3.71484 42.984 3.93084 42.792C4.14684 42.6 4.45884 42.504 4.86684 42.504H7.27884V38.364C7.27884 37.884 7.41084 37.524 7.67484 37.284C7.93884 37.02 8.29884 36.888 8.75484 36.888C9.21084 36.888 9.55884 37.02 9.79884 37.284C10.0628 37.524 10.1948 37.884 10.1948 38.364V42.504H14.7308C15.1388 42.504 15.4508 42.6 15.6668 42.792C15.8828 42.984 15.9908 43.26 15.9908 43.62C15.9908 43.98 15.8828 44.268 15.6668 44.484C15.4508 44.676 15.1388 44.772 14.7308 44.772H10.1948V53.664C10.1948 55.032 10.4828 56.076 11.0588 56.796C11.6348 57.492 12.5708 57.84 13.8668 57.84C14.3228 57.84 14.7068 57.792 15.0188 57.696C15.3548 57.6 15.6308 57.552 15.8468 57.552C16.0628 57.528 16.2428 57.6 16.3868 57.768C16.5308 57.936 16.6028 58.224 16.6028 58.632C16.6028 58.92 16.5428 59.184 16.4228 59.424C16.3268 59.664 16.1468 59.832 15.8828 59.928C15.5948 60.024 15.2108 60.108 14.7308 60.18C14.2748 60.276 13.8548 60.324 13.4708 60.324ZM26.745 60.324C24.897 60.324 23.301 59.964 21.957 59.244C20.637 58.5 19.605 57.456 18.861 56.112C18.141 54.768 17.781 53.16 17.781 51.288C17.781 49.464 18.141 47.88 18.861 46.536C19.581 45.168 20.565 44.1 21.813 43.332C23.085 42.564 24.549 42.18 26.205 42.18C27.381 42.18 28.437 42.384 29.373 42.792C30.309 43.176 31.101 43.74 31.749 44.484C32.421 45.228 32.925 46.128 33.261 47.184C33.621 48.24 33.801 49.428 33.801 50.748C33.801 51.132 33.693 51.42 33.477 51.612C33.261 51.78 32.949 51.864 32.541 51.864H20.013V49.956H31.857L31.281 50.424C31.281 49.128 31.089 48.036 30.705 47.148C30.321 46.236 29.757 45.54 29.013 45.06C28.293 44.58 27.381 44.34 26.277 44.34C25.053 44.34 24.009 44.628 23.145 45.204C22.305 45.756 21.669 46.536 21.237 47.544C20.805 48.528 20.589 49.68 20.589 51V51.216C20.589 53.424 21.117 55.104 22.173 56.256C23.253 57.408 24.777 57.984 26.745 57.984C27.561 57.984 28.365 57.876 29.157 57.66C29.973 57.444 30.765 57.084 31.533 56.58C31.869 56.364 32.169 56.268 32.433 56.292C32.721 56.292 32.949 56.376 33.117 56.544C33.285 56.688 33.393 56.88 33.441 57.12C33.513 57.336 33.489 57.576 33.369 57.84C33.273 58.104 33.069 58.332 32.757 58.524C31.965 59.1 31.029 59.544 29.949 59.856C28.869 60.168 27.801 60.324 26.745 60.324ZM45.4372 60.324C43.6852 60.324 42.1732 59.94 40.9012 59.172C39.6292 58.404 38.6452 57.336 37.9492 55.968C37.2772 54.576 36.9412 52.968 36.9412 51.144C36.9412 49.752 37.1332 48.504 37.5172 47.4C37.9012 46.296 38.4652 45.36 39.2092 44.592C39.9532 43.8 40.8412 43.2 41.8732 42.792C42.9292 42.384 44.1172 42.18 45.4372 42.18C46.3012 42.18 47.2012 42.312 48.1372 42.576C49.0732 42.84 49.9252 43.296 50.6932 43.944C50.9332 44.112 51.0892 44.316 51.1612 44.556C51.2332 44.796 51.2332 45.036 51.1612 45.276C51.0892 45.492 50.9692 45.684 50.8012 45.852C50.6332 45.996 50.4172 46.08 50.1532 46.104C49.9132 46.128 49.6612 46.044 49.3972 45.852C48.7732 45.372 48.1372 45.036 47.4892 44.844C46.8412 44.652 46.2172 44.556 45.6172 44.556C44.6812 44.556 43.8652 44.712 43.1692 45.024C42.4732 45.312 41.8852 45.732 41.4052 46.284C40.9252 46.836 40.5532 47.52 40.2892 48.336C40.0492 49.152 39.9292 50.1 39.9292 51.18C39.9292 53.268 40.4212 54.924 41.4052 56.148C42.3892 57.348 43.7932 57.948 45.6172 57.948C46.2172 57.948 46.8292 57.852 47.4532 57.66C48.1012 57.468 48.7492 57.132 49.3972 56.652C49.6612 56.46 49.9132 56.376 50.1532 56.4C50.3932 56.424 50.5972 56.52 50.7652 56.688C50.9332 56.832 51.0412 57.024 51.0892 57.264C51.1612 57.504 51.1612 57.744 51.0892 57.984C51.0172 58.2 50.8612 58.392 50.6212 58.56C49.8532 59.184 49.0132 59.64 48.1012 59.928C47.1892 60.192 46.3012 60.324 45.4372 60.324ZM56.1252 60.252C55.6452 60.252 55.2852 60.12 55.0452 59.856C54.8052 59.592 54.6852 59.22 54.6852 58.74V35.844C54.6852 35.364 54.8052 35.004 55.0452 34.764C55.2852 34.5 55.6452 34.368 56.1252 34.368C56.5812 34.368 56.9412 34.5 57.2052 34.764C57.4692 35.004 57.6012 35.364 57.6012 35.844V46.392H57.1332C57.6372 45 58.4532 43.956 59.5812 43.26C60.7332 42.54 62.0532 42.18 63.5412 42.18C64.9332 42.18 66.0852 42.432 66.9972 42.936C67.9332 43.44 68.6292 44.208 69.0852 45.24C69.5412 46.248 69.7692 47.532 69.7692 49.092V58.74C69.7692 59.22 69.6372 59.592 69.3732 59.856C69.1332 60.12 68.7852 60.252 68.3292 60.252C67.8492 60.252 67.4772 60.12 67.2132 59.856C66.9732 59.592 66.8532 59.22 66.8532 58.74V49.272C66.8532 47.64 66.5292 46.452 65.8812 45.708C65.2572 44.94 64.2492 44.556 62.8572 44.556C61.2492 44.556 59.9652 45.06 59.0052 46.068C58.0692 47.052 57.6012 48.372 57.6012 50.028V58.74C57.6012 59.748 57.1092 60.252 56.1252 60.252ZM76.5862 60.18C76.1062 60.18 75.7462 60.048 75.5062 59.784C75.2662 59.496 75.1462 59.1 75.1462 58.596V43.872C75.1462 43.368 75.2662 42.984 75.5062 42.72C75.7462 42.456 76.1062 42.324 76.5862 42.324C77.0422 42.324 77.4022 42.456 77.6662 42.72C77.9302 42.984 78.0622 43.368 78.0622 43.872V58.596C78.0622 59.1 77.9302 59.496 77.6662 59.784C77.4262 60.048 77.0662 60.18 76.5862 60.18ZM76.5862 38.292C75.9862 38.292 75.5182 38.136 75.1822 37.824C74.8462 37.488 74.6782 37.044 74.6782 36.492C74.6782 35.916 74.8462 35.484 75.1822 35.196C75.5182 34.884 75.9862 34.728 76.5862 34.728C77.2102 34.728 77.6782 34.884 77.9902 35.196C78.3262 35.484 78.4942 35.916 78.4942 36.492C78.4942 37.044 78.3262 37.488 77.9902 37.824C77.6782 38.136 77.2102 38.292 76.5862 38.292ZM84.9533 60.252C84.4733 60.252 84.1133 60.12 83.8733 59.856C83.6333 59.592 83.5133 59.22 83.5133 58.74V43.728C83.5133 43.248 83.6333 42.888 83.8733 42.648C84.1133 42.384 84.4613 42.252 84.9173 42.252C85.3733 42.252 85.7213 42.384 85.9613 42.648C86.2253 42.888 86.3573 43.248 86.3573 43.728V46.824L85.9613 46.392C86.4653 45 87.2813 43.956 88.4093 43.26C89.5613 42.54 90.8813 42.18 92.3693 42.18C93.7613 42.18 94.9133 42.432 95.8253 42.936C96.7613 43.44 97.4573 44.208 97.9133 45.24C98.3693 46.248 98.5973 47.532 98.5973 49.092V58.74C98.5973 59.22 98.4653 59.592 98.2013 59.856C97.9613 60.12 97.6133 60.252 97.1573 60.252C96.6773 60.252 96.3053 60.12 96.0413 59.856C95.8013 59.592 95.6813 59.22 95.6813 58.74V49.272C95.6813 47.64 95.3573 46.452 94.7093 45.708C94.0853 44.94 93.0773 44.556 91.6853 44.556C90.0773 44.556 88.7933 45.06 87.8333 46.068C86.8973 47.052 86.4293 48.372 86.4293 50.028V58.74C86.4293 59.748 85.9373 60.252 84.9533 60.252ZM110.314 60.252C109.907 60.252 109.547 60.144 109.235 59.928C108.923 59.688 108.659 59.328 108.443 58.848L102.215 44.304C102.047 43.944 101.987 43.608 102.035 43.296C102.083 42.984 102.227 42.732 102.467 42.54C102.707 42.348 103.043 42.252 103.475 42.252C103.859 42.252 104.159 42.336 104.375 42.504C104.591 42.672 104.783 42.972 104.951 43.404L110.855 57.84H109.883L115.895 43.404C116.063 42.972 116.255 42.672 116.471 42.504C116.687 42.336 116.999 42.252 117.407 42.252C117.791 42.252 118.079 42.348 118.271 42.54C118.487 42.732 118.607 42.984 118.631 43.296C118.679 43.584 118.631 43.908 118.487 44.268L112.187 58.848C112.019 59.328 111.767 59.688 111.431 59.928C111.119 60.144 110.747 60.252 110.314 60.252ZM123.766 60.18C123.286 60.18 122.926 60.048 122.686 59.784C122.446 59.496 122.326 59.1 122.326 58.596V43.872C122.326 43.368 122.446 42.984 122.686 42.72C122.926 42.456 123.286 42.324 123.766 42.324C124.222 42.324 124.582 42.456 124.846 42.72C125.11 42.984 125.242 43.368 125.242 43.872V58.596C125.242 59.1 125.11 59.496 124.846 59.784C124.606 60.048 124.246 60.18 123.766 60.18ZM123.766 38.292C123.166 38.292 122.698 38.136 122.362 37.824C122.026 37.488 121.858 37.044 121.858 36.492C121.858 35.916 122.026 35.484 122.362 35.196C122.698 34.884 123.166 34.728 123.766 34.728C124.39 34.728 124.858 34.884 125.17 35.196C125.506 35.484 125.674 35.916 125.674 36.492C125.674 37.044 125.506 37.488 125.17 37.824C124.858 38.136 124.39 38.292 123.766 38.292ZM136.201 60.324C135.001 60.324 133.921 60.096 132.961 59.64C132.025 59.16 131.281 58.512 130.729 57.696C130.177 56.88 129.901 55.968 129.901 54.96C129.901 53.664 130.225 52.644 130.873 51.9C131.545 51.156 132.637 50.628 134.149 50.316C135.685 50.004 137.773 49.848 140.413 49.848H142.033V51.756H140.449C138.505 51.756 136.969 51.852 135.841 52.044C134.737 52.212 133.957 52.512 133.501 52.944C133.069 53.376 132.853 53.988 132.853 54.78C132.853 55.764 133.189 56.568 133.861 57.192C134.557 57.816 135.493 58.128 136.669 58.128C137.629 58.128 138.469 57.9 139.189 57.444C139.933 56.988 140.509 56.364 140.917 55.572C141.349 54.78 141.565 53.868 141.565 52.836V48.732C141.565 47.244 141.265 46.176 140.665 45.528C140.065 44.856 139.081 44.52 137.713 44.52C136.873 44.52 136.033 44.628 135.193 44.844C134.353 45.06 133.465 45.408 132.529 45.888C132.193 46.056 131.905 46.116 131.665 46.068C131.425 45.996 131.233 45.864 131.089 45.672C130.945 45.48 130.861 45.264 130.837 45.024C130.813 44.76 130.861 44.508 130.981 44.268C131.125 44.028 131.341 43.836 131.629 43.692C132.685 43.164 133.729 42.78 134.761 42.54C135.793 42.3 136.777 42.18 137.713 42.18C139.225 42.18 140.473 42.432 141.457 42.936C142.441 43.416 143.173 44.16 143.653 45.168C144.133 46.152 144.373 47.424 144.373 48.984V58.74C144.373 59.22 144.253 59.592 144.013 59.856C143.797 60.12 143.473 60.252 143.041 60.252C142.585 60.252 142.237 60.12 141.997 59.856C141.757 59.592 141.637 59.22 141.637 58.74V55.932H141.961C141.769 56.844 141.397 57.624 140.845 58.272C140.317 58.92 139.657 59.424 138.865 59.784C138.073 60.144 137.185 60.324 136.201 60.324ZM166.804 66.804C165.532 66.804 164.284 66.648 163.06 66.336C161.86 66.048 160.768 65.58 159.784 64.932C159.496 64.764 159.304 64.56 159.208 64.32C159.136 64.08 159.124 63.84 159.172 63.6C159.22 63.384 159.328 63.18 159.496 62.988C159.664 62.82 159.856 62.712 160.072 62.664C160.312 62.616 160.552 62.652 160.792 62.772C161.848 63.42 162.856 63.864 163.816 64.104C164.776 64.344 165.724 64.464 166.66 64.464C168.364 64.464 169.648 64.008 170.512 63.096C171.4 62.184 171.844 60.864 171.844 59.136V55.068H172.204C171.844 56.46 171.076 57.564 169.9 58.38C168.748 59.196 167.392 59.604 165.832 59.604C164.224 59.604 162.832 59.244 161.656 58.524C160.48 57.78 159.568 56.748 158.92 55.428C158.296 54.108 157.984 52.584 157.984 50.856C157.984 49.56 158.164 48.384 158.524 47.328C158.884 46.248 159.4 45.336 160.072 44.592C160.768 43.824 161.596 43.236 162.556 42.828C163.54 42.396 164.632 42.18 165.832 42.18C167.416 42.18 168.784 42.588 169.936 43.404C171.088 44.196 171.832 45.276 172.168 46.644L171.808 47.076V43.728C171.808 43.248 171.928 42.888 172.168 42.648C172.432 42.384 172.792 42.252 173.248 42.252C173.728 42.252 174.088 42.384 174.328 42.648C174.568 42.888 174.688 43.248 174.688 43.728V58.74C174.688 61.404 174.016 63.408 172.672 64.752C171.352 66.12 169.396 66.804 166.804 66.804ZM166.372 57.228C167.5 57.228 168.472 56.976 169.288 56.472C170.104 55.944 170.728 55.2 171.16 54.24C171.616 53.28 171.844 52.152 171.844 50.856C171.844 48.912 171.352 47.376 170.368 46.248C169.384 45.096 168.052 44.52 166.372 44.52C165.268 44.52 164.308 44.784 163.492 45.312C162.676 45.816 162.04 46.548 161.584 47.508C161.152 48.444 160.936 49.56 160.936 50.856C160.936 52.8 161.428 54.348 162.412 55.5C163.396 56.652 164.716 57.228 166.372 57.228ZM181.634 60.252C181.154 60.252 180.782 60.12 180.518 59.856C180.278 59.592 180.158 59.22 180.158 58.74V43.728C180.158 43.248 180.278 42.888 180.518 42.648C180.758 42.384 181.106 42.252 181.562 42.252C182.018 42.252 182.366 42.384 182.606 42.648C182.87 42.888 183.002 43.248 183.002 43.728V46.644H182.642C183.026 45.228 183.758 44.136 184.838 43.368C185.918 42.6 187.25 42.192 188.834 42.144C189.194 42.12 189.482 42.204 189.698 42.396C189.914 42.564 190.034 42.864 190.058 43.296C190.082 43.704 189.986 44.028 189.77 44.268C189.554 44.508 189.218 44.652 188.762 44.7L188.186 44.772C186.554 44.916 185.294 45.444 184.406 46.356C183.542 47.244 183.11 48.468 183.11 50.028V58.74C183.11 59.22 182.978 59.592 182.714 59.856C182.474 60.12 182.114 60.252 181.634 60.252ZM200.121 60.324C198.417 60.324 196.941 59.952 195.693 59.208C194.445 58.464 193.473 57.42 192.777 56.076C192.105 54.708 191.769 53.1 191.769 51.252C191.769 49.86 191.961 48.612 192.345 47.508C192.729 46.38 193.293 45.42 194.037 44.628C194.781 43.836 195.657 43.236 196.665 42.828C197.697 42.396 198.849 42.18 200.121 42.18C201.825 42.18 203.301 42.552 204.549 43.296C205.797 44.04 206.757 45.096 207.429 46.464C208.125 47.808 208.473 49.404 208.473 51.252C208.473 52.644 208.281 53.892 207.897 54.996C207.513 56.1 206.949 57.06 206.205 57.876C205.461 58.668 204.573 59.28 203.541 59.712C202.533 60.12 201.393 60.324 200.121 60.324ZM200.121 57.984C201.201 57.984 202.149 57.72 202.965 57.192C203.781 56.664 204.405 55.896 204.837 54.888C205.293 53.88 205.521 52.668 205.521 51.252C205.521 49.068 205.029 47.4 204.045 46.248C203.085 45.096 201.777 44.52 200.121 44.52C199.017 44.52 198.057 44.784 197.241 45.312C196.449 45.816 195.825 46.572 195.369 47.58C194.937 48.564 194.721 49.788 194.721 51.252C194.721 53.412 195.213 55.08 196.197 56.256C197.181 57.408 198.489 57.984 200.121 57.984ZM219.045 60.324C217.629 60.324 216.453 60.072 215.517 59.568C214.605 59.04 213.909 58.26 213.429 57.228C212.973 56.196 212.745 54.912 212.745 53.376V43.728C212.745 43.224 212.865 42.852 213.105 42.612C213.369 42.372 213.729 42.252 214.185 42.252C214.665 42.252 215.025 42.372 215.265 42.612C215.529 42.852 215.661 43.224 215.661 43.728V53.34C215.661 54.876 215.973 56.028 216.597 56.796C217.245 57.54 218.253 57.912 219.621 57.912C221.109 57.912 222.321 57.408 223.257 56.4C224.193 55.392 224.661 54.072 224.661 52.44V43.728C224.661 43.224 224.781 42.852 225.021 42.612C225.285 42.372 225.657 42.252 226.137 42.252C226.593 42.252 226.941 42.372 227.181 42.612C227.445 42.852 227.577 43.224 227.577 43.728V58.74C227.577 59.748 227.109 60.252 226.173 60.252C225.717 60.252 225.357 60.12 225.093 59.856C224.853 59.592 224.733 59.22 224.733 58.74V55.464L225.201 55.968C224.721 57.384 223.929 58.464 222.825 59.208C221.745 59.952 220.485 60.324 219.045 60.324ZM234.473 66.732C233.993 66.732 233.633 66.6 233.393 66.336C233.153 66.096 233.033 65.736 233.033 65.256V43.728C233.033 43.248 233.153 42.888 233.393 42.648C233.633 42.384 233.981 42.252 234.437 42.252C234.917 42.252 235.277 42.384 235.517 42.648C235.781 42.888 235.913 43.248 235.913 43.728V47.148L235.517 46.644C235.901 45.276 236.657 44.196 237.785 43.404C238.937 42.588 240.305 42.18 241.889 42.18C243.449 42.18 244.805 42.552 245.957 43.296C247.133 44.016 248.033 45.06 248.657 46.428C249.305 47.772 249.629 49.38 249.629 51.252C249.629 53.1 249.305 54.708 248.657 56.076C248.033 57.42 247.145 58.464 245.993 59.208C244.841 59.952 243.473 60.324 241.889 60.324C240.305 60.324 238.949 59.928 237.821 59.136C236.693 58.32 235.925 57.24 235.517 55.896H235.949V65.256C235.949 65.736 235.817 66.096 235.553 66.336C235.289 66.6 234.929 66.732 234.473 66.732ZM241.277 57.984C242.381 57.984 243.329 57.72 244.121 57.192C244.937 56.664 245.561 55.896 245.993 54.888C246.449 53.88 246.677 52.668 246.677 51.252C246.677 49.068 246.185 47.4 245.201 46.248C244.241 45.096 242.933 44.52 241.277 44.52C240.197 44.52 239.249 44.784 238.433 45.312C237.617 45.816 236.981 46.572 236.525 47.58C236.093 48.564 235.877 49.788 235.877 51.252C235.877 53.412 236.369 55.08 237.353 56.256C238.337 57.408 239.645 57.984 241.277 57.984Z" fill="#5B818D"/>
<path d="M412.106 55.18C411.346 55.18 410.706 55.0467 410.186 54.78C409.679 54.5 409.299 54.1 409.046 53.58C408.792 53.0467 408.666 52.4 408.666 51.64V46.54H407.326C407.099 46.54 406.926 46.4867 406.806 46.38C406.686 46.26 406.626 46.1 406.626 45.9C406.626 45.7 406.686 45.5467 406.806 45.44C406.926 45.3333 407.099 45.28 407.326 45.28H408.666V42.98C408.666 42.7133 408.739 42.5133 408.886 42.38C409.032 42.2333 409.232 42.16 409.486 42.16C409.739 42.16 409.932 42.2333 410.066 42.38C410.212 42.5133 410.286 42.7133 410.286 42.98V45.28H412.806C413.032 45.28 413.206 45.3333 413.326 45.44C413.446 45.5467 413.506 45.7 413.506 45.9C413.506 46.1 413.446 46.26 413.326 46.38C413.206 46.4867 413.032 46.54 412.806 46.54H410.286V51.48C410.286 52.24 410.446 52.82 410.766 53.22C411.086 53.6067 411.606 53.8 412.326 53.8C412.579 53.8 412.792 53.7733 412.966 53.72C413.152 53.6667 413.306 53.64 413.426 53.64C413.546 53.6267 413.646 53.6667 413.726 53.76C413.806 53.8533 413.846 54.0133 413.846 54.24C413.846 54.4 413.812 54.5467 413.746 54.68C413.692 54.8133 413.592 54.9067 413.446 54.96C413.286 55.0133 413.072 55.06 412.806 55.1C412.552 55.1533 412.319 55.18 412.106 55.18ZM419.48 55.18C418.453 55.18 417.567 54.98 416.82 54.58C416.087 54.1667 415.513 53.5867 415.1 52.84C414.7 52.0933 414.5 51.2 414.5 50.16C414.5 49.1467 414.7 48.2667 415.1 47.52C415.5 46.76 416.047 46.1667 416.74 45.74C417.447 45.3133 418.26 45.1 419.18 45.1C419.833 45.1 420.42 45.2133 420.94 45.44C421.46 45.6533 421.9 45.9667 422.26 46.38C422.633 46.7933 422.913 47.2933 423.1 47.88C423.3 48.4667 423.4 49.1267 423.4 49.86C423.4 50.0733 423.34 50.2333 423.22 50.34C423.1 50.4333 422.927 50.48 422.7 50.48H415.74V49.42H422.32L422 49.68C422 48.96 421.893 48.3533 421.68 47.86C421.467 47.3533 421.153 46.9667 420.74 46.7C420.34 46.4333 419.833 46.3 419.22 46.3C418.54 46.3 417.96 46.46 417.48 46.78C417.013 47.0867 416.66 47.52 416.42 48.08C416.18 48.6267 416.06 49.2667 416.06 50V50.12C416.06 51.3467 416.353 52.28 416.94 52.92C417.54 53.56 418.387 53.88 419.48 53.88C419.933 53.88 420.38 53.82 420.82 53.7C421.273 53.58 421.713 53.38 422.14 53.1C422.327 52.98 422.493 52.9267 422.64 52.94C422.8 52.94 422.927 52.9867 423.02 53.08C423.113 53.16 423.173 53.2667 423.2 53.4C423.24 53.52 423.227 53.6533 423.16 53.8C423.107 53.9467 422.993 54.0733 422.82 54.18C422.38 54.5 421.86 54.7467 421.26 54.92C420.66 55.0933 420.067 55.18 419.48 55.18ZM429.865 55.18C428.891 55.18 428.051 54.9667 427.345 54.54C426.638 54.1133 426.091 53.52 425.705 52.76C425.331 51.9867 425.145 51.0933 425.145 50.08C425.145 49.3067 425.251 48.6133 425.465 48C425.678 47.3867 425.991 46.8667 426.405 46.44C426.818 46 427.311 45.6667 427.885 45.44C428.471 45.2133 429.131 45.1 429.865 45.1C430.345 45.1 430.845 45.1733 431.365 45.32C431.885 45.4667 432.358 45.72 432.785 46.08C432.918 46.1733 433.005 46.2867 433.045 46.42C433.085 46.5533 433.085 46.6867 433.045 46.82C433.005 46.94 432.938 47.0467 432.845 47.14C432.751 47.22 432.631 47.2667 432.485 47.28C432.351 47.2933 432.211 47.2467 432.065 47.14C431.718 46.8733 431.365 46.6867 431.005 46.58C430.645 46.4733 430.298 46.42 429.965 46.42C429.445 46.42 428.991 46.5067 428.605 46.68C428.218 46.84 427.891 47.0733 427.625 47.38C427.358 47.6867 427.151 48.0667 427.005 48.52C426.871 48.9733 426.805 49.5 426.805 50.1C426.805 51.26 427.078 52.18 427.625 52.86C428.171 53.5267 428.951 53.86 429.965 53.86C430.298 53.86 430.638 53.8067 430.985 53.7C431.345 53.5933 431.705 53.4067 432.065 53.14C432.211 53.0333 432.351 52.9867 432.485 53C432.618 53.0133 432.731 53.0667 432.825 53.16C432.918 53.24 432.978 53.3467 433.005 53.48C433.045 53.6133 433.045 53.7467 433.005 53.88C432.965 54 432.878 54.1067 432.745 54.2C432.318 54.5467 431.851 54.8 431.345 54.96C430.838 55.1067 430.345 55.18 429.865 55.18ZM435.802 55.14C435.536 55.14 435.336 55.0667 435.202 54.92C435.069 54.7733 435.002 54.5667 435.002 54.3V41.58C435.002 41.3133 435.069 41.1133 435.202 40.98C435.336 40.8333 435.536 40.76 435.802 40.76C436.056 40.76 436.256 40.8333 436.402 40.98C436.549 41.1133 436.622 41.3133 436.622 41.58V47.44H436.362C436.642 46.6667 437.096 46.0867 437.722 45.7C438.362 45.3 439.096 45.1 439.922 45.1C440.696 45.1 441.336 45.24 441.842 45.52C442.362 45.8 442.749 46.2267 443.002 46.8C443.256 47.36 443.382 48.0733 443.382 48.94V54.3C443.382 54.5667 443.309 54.7733 443.162 54.92C443.029 55.0667 442.836 55.14 442.582 55.14C442.316 55.14 442.109 55.0667 441.962 54.92C441.829 54.7733 441.762 54.5667 441.762 54.3V49.04C441.762 48.1333 441.582 47.4733 441.222 47.06C440.876 46.6333 440.316 46.42 439.542 46.42C438.649 46.42 437.936 46.7 437.402 47.26C436.882 47.8067 436.622 48.54 436.622 49.46V54.3C436.622 54.86 436.349 55.14 435.802 55.14ZM447.17 55.1C446.903 55.1 446.703 55.0267 446.57 54.88C446.436 54.72 446.37 54.5 446.37 54.22V46.04C446.37 45.76 446.436 45.5467 446.57 45.4C446.703 45.2533 446.903 45.18 447.17 45.18C447.423 45.18 447.623 45.2533 447.77 45.4C447.916 45.5467 447.99 45.76 447.99 46.04V54.22C447.99 54.5 447.916 54.72 447.77 54.88C447.636 55.0267 447.436 55.1 447.17 55.1ZM447.17 42.94C446.836 42.94 446.576 42.8533 446.39 42.68C446.203 42.4933 446.11 42.2467 446.11 41.94C446.11 41.62 446.203 41.38 446.39 41.22C446.576 41.0467 446.836 40.96 447.17 40.96C447.516 40.96 447.776 41.0467 447.95 41.22C448.136 41.38 448.23 41.62 448.23 41.94C448.23 42.2467 448.136 42.4933 447.95 42.68C447.776 42.8533 447.516 42.94 447.17 42.94ZM451.818 55.14C451.551 55.14 451.351 55.0667 451.218 54.92C451.085 54.7733 451.018 54.5667 451.018 54.3V45.96C451.018 45.6933 451.085 45.4933 451.218 45.36C451.351 45.2133 451.545 45.14 451.798 45.14C452.051 45.14 452.245 45.2133 452.378 45.36C452.525 45.4933 452.598 45.6933 452.598 45.96V47.68L452.378 47.44C452.658 46.6667 453.111 46.0867 453.738 45.7C454.378 45.3 455.111 45.1 455.938 45.1C456.711 45.1 457.351 45.24 457.858 45.52C458.378 45.8 458.765 46.2267 459.018 46.8C459.271 47.36 459.398 48.0733 459.398 48.94V54.3C459.398 54.5667 459.325 54.7733 459.178 54.92C459.045 55.0667 458.851 55.14 458.598 55.14C458.331 55.14 458.125 55.0667 457.978 54.92C457.845 54.7733 457.778 54.5667 457.778 54.3V49.04C457.778 48.1333 457.598 47.4733 457.238 47.06C456.891 46.6333 456.331 46.42 455.558 46.42C454.665 46.42 453.951 46.7 453.418 47.26C452.898 47.8067 452.638 48.54 452.638 49.46V54.3C452.638 54.86 452.365 55.14 451.818 55.14ZM465.908 55.14C465.681 55.14 465.481 55.08 465.308 54.96C465.134 54.8267 464.988 54.6267 464.868 54.36L461.408 46.28C461.314 46.08 461.281 45.8933 461.308 45.72C461.334 45.5467 461.414 45.4067 461.548 45.3C461.681 45.1933 461.868 45.14 462.108 45.14C462.321 45.14 462.488 45.1867 462.608 45.28C462.728 45.3733 462.834 45.54 462.928 45.78L466.208 53.8H465.668L469.008 45.78C469.101 45.54 469.208 45.3733 469.328 45.28C469.448 45.1867 469.621 45.14 469.848 45.14C470.061 45.14 470.221 45.1933 470.328 45.3C470.448 45.4067 470.514 45.5467 470.528 45.72C470.554 45.88 470.528 46.06 470.448 46.26L466.948 54.36C466.854 54.6267 466.714 54.8267 466.528 54.96C466.354 55.08 466.148 55.14 465.908 55.14ZM473.381 55.1C473.114 55.1 472.914 55.0267 472.781 54.88C472.647 54.72 472.581 54.5 472.581 54.22V46.04C472.581 45.76 472.647 45.5467 472.781 45.4C472.914 45.2533 473.114 45.18 473.381 45.18C473.634 45.18 473.834 45.2533 473.981 45.4C474.127 45.5467 474.201 45.76 474.201 46.04V54.22C474.201 54.5 474.127 54.72 473.981 54.88C473.847 55.0267 473.647 55.1 473.381 55.1ZM473.381 42.94C473.047 42.94 472.787 42.8533 472.601 42.68C472.414 42.4933 472.321 42.2467 472.321 41.94C472.321 41.62 472.414 41.38 472.601 41.22C472.787 41.0467 473.047 40.96 473.381 40.96C473.727 40.96 473.987 41.0467 474.161 41.22C474.347 41.38 474.441 41.62 474.441 41.94C474.441 42.2467 474.347 42.4933 474.161 42.68C473.987 42.8533 473.727 42.94 473.381 42.94ZM480.289 55.18C479.622 55.18 479.022 55.0533 478.489 54.8C477.969 54.5333 477.556 54.1733 477.249 53.72C476.942 53.2667 476.789 52.76 476.789 52.2C476.789 51.48 476.969 50.9133 477.329 50.5C477.702 50.0867 478.309 49.7933 479.149 49.62C480.002 49.4467 481.162 49.36 482.629 49.36H483.529V50.42H482.649C481.569 50.42 480.716 50.4733 480.089 50.58C479.476 50.6733 479.042 50.84 478.789 51.08C478.549 51.32 478.429 51.66 478.429 52.1C478.429 52.6467 478.616 53.0933 478.989 53.44C479.376 53.7867 479.896 53.96 480.549 53.96C481.082 53.96 481.549 53.8333 481.949 53.58C482.362 53.3267 482.682 52.98 482.909 52.54C483.149 52.1 483.269 51.5933 483.269 51.02V48.74C483.269 47.9133 483.102 47.32 482.769 46.96C482.436 46.5867 481.889 46.4 481.129 46.4C480.662 46.4 480.196 46.46 479.729 46.58C479.262 46.7 478.769 46.8933 478.249 47.16C478.062 47.2533 477.902 47.2867 477.769 47.26C477.636 47.22 477.529 47.1467 477.449 47.04C477.369 46.9333 477.322 46.8133 477.309 46.68C477.296 46.5333 477.322 46.3933 477.389 46.26C477.469 46.1267 477.589 46.02 477.749 45.94C478.336 45.6467 478.916 45.4333 479.489 45.3C480.062 45.1667 480.609 45.1 481.129 45.1C481.969 45.1 482.662 45.24 483.209 45.52C483.756 45.7867 484.162 46.2 484.429 46.76C484.696 47.3067 484.829 48.0133 484.829 48.88V54.3C484.829 54.5667 484.762 54.7733 484.629 54.92C484.509 55.0667 484.329 55.14 484.089 55.14C483.836 55.14 483.642 55.0667 483.509 54.92C483.376 54.7733 483.309 54.5667 483.309 54.3V52.74H483.489C483.382 53.2467 483.176 53.68 482.869 54.04C482.576 54.4 482.209 54.68 481.769 54.88C481.329 55.08 480.836 55.18 480.289 55.18Z" fill="#5B818D"/>
<path d="M543.619 55.18C542.859 55.18 542.219 55.0467 541.699 54.78C541.193 54.5 540.813 54.1 540.559 53.58C540.306 53.0467 540.179 52.4 540.179 51.64V46.54H538.839C538.613 46.54 538.439 46.4867 538.319 46.38C538.199 46.26 538.139 46.1 538.139 45.9C538.139 45.7 538.199 45.5467 538.319 45.44C538.439 45.3333 538.613 45.28 538.839 45.28H540.179V42.98C540.179 42.7133 540.253 42.5133 540.399 42.38C540.546 42.2333 540.746 42.16 540.999 42.16C541.253 42.16 541.446 42.2333 541.579 42.38C541.726 42.5133 541.799 42.7133 541.799 42.98V45.28H544.319C544.546 45.28 544.719 45.3333 544.839 45.44C544.959 45.5467 545.019 45.7 545.019 45.9C545.019 46.1 544.959 46.26 544.839 46.38C544.719 46.4867 544.546 46.54 544.319 46.54H541.799V51.48C541.799 52.24 541.959 52.82 542.279 53.22C542.599 53.6067 543.119 53.8 543.839 53.8C544.093 53.8 544.306 53.7733 544.479 53.72C544.666 53.6667 544.819 53.64 544.939 53.64C545.059 53.6267 545.159 53.6667 545.239 53.76C545.319 53.8533 545.359 54.0133 545.359 54.24C545.359 54.4 545.326 54.5467 545.259 54.68C545.206 54.8133 545.106 54.9067 544.959 54.96C544.799 55.0133 544.586 55.06 544.319 55.1C544.066 55.1533 543.833 55.18 543.619 55.18ZM550.994 55.18C549.967 55.18 549.08 54.98 548.334 54.58C547.6 54.1667 547.027 53.5867 546.614 52.84C546.214 52.0933 546.014 51.2 546.014 50.16C546.014 49.1467 546.214 48.2667 546.614 47.52C547.014 46.76 547.56 46.1667 548.254 45.74C548.96 45.3133 549.774 45.1 550.694 45.1C551.347 45.1 551.934 45.2133 552.454 45.44C552.974 45.6533 553.414 45.9667 553.774 46.38C554.147 46.7933 554.427 47.2933 554.614 47.88C554.814 48.4667 554.914 49.1267 554.914 49.86C554.914 50.0733 554.854 50.2333 554.734 50.34C554.614 50.4333 554.44 50.48 554.214 50.48H547.254V49.42H553.834L553.514 49.68C553.514 48.96 553.407 48.3533 553.194 47.86C552.98 47.3533 552.667 46.9667 552.254 46.7C551.854 46.4333 551.347 46.3 550.734 46.3C550.054 46.3 549.474 46.46 548.994 46.78C548.527 47.0867 548.174 47.52 547.934 48.08C547.694 48.6267 547.574 49.2667 547.574 50V50.12C547.574 51.3467 547.867 52.28 548.454 52.92C549.054 53.56 549.9 53.88 550.994 53.88C551.447 53.88 551.894 53.82 552.334 53.7C552.787 53.58 553.227 53.38 553.654 53.1C553.84 52.98 554.007 52.9267 554.154 52.94C554.314 52.94 554.44 52.9867 554.534 53.08C554.627 53.16 554.687 53.2667 554.714 53.4C554.754 53.52 554.74 53.6533 554.674 53.8C554.62 53.9467 554.507 54.0733 554.334 54.18C553.894 54.5 553.374 54.7467 552.774 54.92C552.174 55.0933 551.58 55.18 550.994 55.18ZM561.378 55.18C560.405 55.18 559.565 54.9667 558.858 54.54C558.152 54.1133 557.605 53.52 557.218 52.76C556.845 51.9867 556.658 51.0933 556.658 50.08C556.658 49.3067 556.765 48.6133 556.978 48C557.192 47.3867 557.505 46.8667 557.918 46.44C558.332 46 558.825 45.6667 559.398 45.44C559.985 45.2133 560.645 45.1 561.378 45.1C561.858 45.1 562.358 45.1733 562.878 45.32C563.398 45.4667 563.872 45.72 564.298 46.08C564.432 46.1733 564.518 46.2867 564.558 46.42C564.598 46.5533 564.598 46.6867 564.558 46.82C564.518 46.94 564.452 47.0467 564.358 47.14C564.265 47.22 564.145 47.2667 563.998 47.28C563.865 47.2933 563.725 47.2467 563.578 47.14C563.232 46.8733 562.878 46.6867 562.518 46.58C562.158 46.4733 561.812 46.42 561.478 46.42C560.958 46.42 560.505 46.5067 560.118 46.68C559.732 46.84 559.405 47.0733 559.138 47.38C558.872 47.6867 558.665 48.0667 558.518 48.52C558.385 48.9733 558.318 49.5 558.318 50.1C558.318 51.26 558.592 52.18 559.138 52.86C559.685 53.5267 560.465 53.86 561.478 53.86C561.812 53.86 562.152 53.8067 562.498 53.7C562.858 53.5933 563.218 53.4067 563.578 53.14C563.725 53.0333 563.865 52.9867 563.998 53C564.132 53.0133 564.245 53.0667 564.338 53.16C564.432 53.24 564.492 53.3467 564.518 53.48C564.558 53.6133 564.558 53.7467 564.518 53.88C564.478 54 564.392 54.1067 564.258 54.2C563.832 54.5467 563.365 54.8 562.858 54.96C562.352 55.1067 561.858 55.18 561.378 55.18ZM567.316 55.14C567.049 55.14 566.849 55.0667 566.716 54.92C566.583 54.7733 566.516 54.5667 566.516 54.3V41.58C566.516 41.3133 566.583 41.1133 566.716 40.98C566.849 40.8333 567.049 40.76 567.316 40.76C567.569 40.76 567.769 40.8333 567.916 40.98C568.063 41.1133 568.136 41.3133 568.136 41.58V47.44H567.876C568.156 46.6667 568.609 46.0867 569.236 45.7C569.876 45.3 570.609 45.1 571.436 45.1C572.209 45.1 572.849 45.24 573.356 45.52C573.876 45.8 574.263 46.2267 574.516 46.8C574.769 47.36 574.896 48.0733 574.896 48.94V54.3C574.896 54.5667 574.823 54.7733 574.676 54.92C574.543 55.0667 574.349 55.14 574.096 55.14C573.829 55.14 573.623 55.0667 573.476 54.92C573.343 54.7733 573.276 54.5667 573.276 54.3V49.04C573.276 48.1333 573.096 47.4733 572.736 47.06C572.389 46.6333 571.829 46.42 571.056 46.42C570.163 46.42 569.449 46.7 568.916 47.26C568.396 47.8067 568.136 48.54 568.136 49.46V54.3C568.136 54.86 567.863 55.14 567.316 55.14ZM578.683 55.1C578.417 55.1 578.217 55.0267 578.083 54.88C577.95 54.72 577.883 54.5 577.883 54.22V46.04C577.883 45.76 577.95 45.5467 578.083 45.4C578.217 45.2533 578.417 45.18 578.683 45.18C578.937 45.18 579.137 45.2533 579.283 45.4C579.43 45.5467 579.503 45.76 579.503 46.04V54.22C579.503 54.5 579.43 54.72 579.283 54.88C579.15 55.0267 578.95 55.1 578.683 55.1ZM578.683 42.94C578.35 42.94 578.09 42.8533 577.903 42.68C577.717 42.4933 577.623 42.2467 577.623 41.94C577.623 41.62 577.717 41.38 577.903 41.22C578.09 41.0467 578.35 40.96 578.683 40.96C579.03 40.96 579.29 41.0467 579.463 41.22C579.65 41.38 579.743 41.62 579.743 41.94C579.743 42.2467 579.65 42.4933 579.463 42.68C579.29 42.8533 579.03 42.94 578.683 42.94ZM583.332 55.14C583.065 55.14 582.865 55.0667 582.732 54.92C582.598 54.7733 582.532 54.5667 582.532 54.3V45.96C582.532 45.6933 582.598 45.4933 582.732 45.36C582.865 45.2133 583.058 45.14 583.312 45.14C583.565 45.14 583.758 45.2133 583.892 45.36C584.038 45.4933 584.112 45.6933 584.112 45.96V47.68L583.892 47.44C584.172 46.6667 584.625 46.0867 585.252 45.7C585.892 45.3 586.625 45.1 587.452 45.1C588.225 45.1 588.865 45.24 589.372 45.52C589.892 45.8 590.278 46.2267 590.532 46.8C590.785 47.36 590.912 48.0733 590.912 48.94V54.3C590.912 54.5667 590.838 54.7733 590.692 54.92C590.558 55.0667 590.365 55.14 590.112 55.14C589.845 55.14 589.638 55.0667 589.492 54.92C589.358 54.7733 589.292 54.5667 589.292 54.3V49.04C589.292 48.1333 589.112 47.4733 588.752 47.06C588.405 46.6333 587.845 46.42 587.072 46.42C586.178 46.42 585.465 46.7 584.932 47.26C584.412 47.8067 584.152 48.54 584.152 49.46V54.3C584.152 54.86 583.878 55.14 583.332 55.14ZM597.799 55.18C597.039 55.18 596.399 55.0467 595.879 54.78C595.372 54.5 594.992 54.1 594.739 53.58C594.486 53.0467 594.359 52.4 594.359 51.64V46.54H593.019C592.792 46.54 592.619 46.4867 592.499 46.38C592.379 46.26 592.319 46.1 592.319 45.9C592.319 45.7 592.379 45.5467 592.499 45.44C592.619 45.3333 592.792 45.28 593.019 45.28H594.359V42.98C594.359 42.7133 594.432 42.5133 594.579 42.38C594.726 42.2333 594.926 42.16 595.179 42.16C595.432 42.16 595.626 42.2333 595.759 42.38C595.906 42.5133 595.979 42.7133 595.979 42.98V45.28H598.499C598.726 45.28 598.899 45.3333 599.019 45.44C599.139 45.5467 599.199 45.7 599.199 45.9C599.199 46.1 599.139 46.26 599.019 46.38C598.899 46.4867 598.726 46.54 598.499 46.54H595.979V51.48C595.979 52.24 596.139 52.82 596.459 53.22C596.779 53.6067 597.299 53.8 598.019 53.8C598.272 53.8 598.486 53.7733 598.659 53.72C598.846 53.6667 598.999 53.64 599.119 53.64C599.239 53.6267 599.339 53.6667 599.419 53.76C599.499 53.8533 599.539 54.0133 599.539 54.24C599.539 54.4 599.506 54.5467 599.439 54.68C599.386 54.8133 599.286 54.9067 599.139 54.96C598.979 55.0133 598.766 55.06 598.499 55.1C598.246 55.1533 598.012 55.18 597.799 55.18ZM603.951 55.18C603.284 55.18 602.684 55.0533 602.151 54.8C601.631 54.5333 601.218 54.1733 600.911 53.72C600.604 53.2667 600.451 52.76 600.451 52.2C600.451 51.48 600.631 50.9133 600.991 50.5C601.364 50.0867 601.971 49.7933 602.811 49.62C603.664 49.4467 604.824 49.36 606.291 49.36H607.191V50.42H606.311C605.231 50.42 604.378 50.4733 603.751 50.58C603.138 50.6733 602.704 50.84 602.451 51.08C602.211 51.32 602.091 51.66 602.091 52.1C602.091 52.6467 602.278 53.0933 602.651 53.44C603.038 53.7867 603.558 53.96 604.211 53.96C604.744 53.96 605.211 53.8333 605.611 53.58C606.024 53.3267 606.344 52.98 606.571 52.54C606.811 52.1 606.931 51.5933 606.931 51.02V48.74C606.931 47.9133 606.764 47.32 606.431 46.96C606.098 46.5867 605.551 46.4 604.791 46.4C604.324 46.4 603.858 46.46 603.391 46.58C602.924 46.7 602.431 46.8933 601.911 47.16C601.724 47.2533 601.564 47.2867 601.431 47.26C601.298 47.22 601.191 47.1467 601.111 47.04C601.031 46.9333 600.984 46.8133 600.971 46.68C600.958 46.5333 600.984 46.3933 601.051 46.26C601.131 46.1267 601.251 46.02 601.411 45.94C601.998 45.6467 602.578 45.4333 603.151 45.3C603.724 45.1667 604.271 45.1 604.791 45.1C605.631 45.1 606.324 45.24 606.871 45.52C607.418 45.7867 607.824 46.2 608.091 46.76C608.358 47.3067 608.491 48.0133 608.491 48.88V54.3C608.491 54.5667 608.424 54.7733 608.291 54.92C608.171 55.0667 607.991 55.14 607.751 55.14C607.498 55.14 607.304 55.0667 607.171 54.92C607.038 54.7733 606.971 54.5667 606.971 54.3V52.74H607.151C607.044 53.2467 606.838 53.68 606.531 54.04C606.238 54.4 605.871 54.68 605.431 54.88C604.991 55.08 604.498 55.18 603.951 55.18ZM614.457 55.18C613.497 55.18 612.763 54.8867 612.257 54.3C611.75 53.7133 611.497 52.8733 611.497 51.78V41.58C611.497 41.3133 611.563 41.1133 611.697 40.98C611.83 40.8333 612.03 40.76 612.297 40.76C612.55 40.76 612.75 40.8333 612.897 40.98C613.043 41.1133 613.117 41.3133 613.117 41.58V51.66C613.117 52.38 613.257 52.92 613.537 53.28C613.83 53.6267 614.257 53.8 614.817 53.8C614.937 53.8 615.043 53.7933 615.137 53.78C615.23 53.7667 615.323 53.76 615.417 53.76C615.563 53.7467 615.663 53.78 615.717 53.86C615.783 53.94 615.817 54.1 615.817 54.34C615.817 54.58 615.763 54.76 615.657 54.88C615.55 55 615.377 55.08 615.137 55.12C615.03 55.1333 614.917 55.1467 614.797 55.16C614.677 55.1733 614.563 55.18 614.457 55.18ZM621.697 55.18C620.67 55.18 619.784 54.98 619.037 54.58C618.304 54.1667 617.73 53.5867 617.317 52.84C616.917 52.0933 616.717 51.2 616.717 50.16C616.717 49.1467 616.917 48.2667 617.317 47.52C617.717 46.76 618.264 46.1667 618.957 45.74C619.664 45.3133 620.477 45.1 621.397 45.1C622.05 45.1 622.637 45.2133 623.157 45.44C623.677 45.6533 624.117 45.9667 624.477 46.38C624.85 46.7933 625.13 47.2933 625.317 47.88C625.517 48.4667 625.617 49.1267 625.617 49.86C625.617 50.0733 625.557 50.2333 625.437 50.34C625.317 50.4333 625.144 50.48 624.917 50.48H617.957V49.42H624.537L624.217 49.68C624.217 48.96 624.11 48.3533 623.897 47.86C623.684 47.3533 623.37 46.9667 622.957 46.7C622.557 46.4333 622.05 46.3 621.437 46.3C620.757 46.3 620.177 46.46 619.697 46.78C619.23 47.0867 618.877 47.52 618.637 48.08C618.397 48.6267 618.277 49.2667 618.277 50V50.12C618.277 51.3467 618.57 52.28 619.157 52.92C619.757 53.56 620.604 53.88 621.697 53.88C622.15 53.88 622.597 53.82 623.037 53.7C623.49 53.58 623.93 53.38 624.357 53.1C624.544 52.98 624.71 52.9267 624.857 52.94C625.017 52.94 625.144 52.9867 625.237 53.08C625.33 53.16 625.39 53.2667 625.417 53.4C625.457 53.52 625.444 53.6533 625.377 53.8C625.324 53.9467 625.21 54.0733 625.037 54.18C624.597 54.5 624.077 54.7467 623.477 54.92C622.877 55.0933 622.284 55.18 621.697 55.18ZM628.761 55.14C628.495 55.14 628.295 55.0667 628.161 54.92C628.028 54.7733 627.961 54.5667 627.961 54.3V45.96C627.961 45.6933 628.028 45.4933 628.161 45.36C628.295 45.2133 628.488 45.14 628.741 45.14C628.995 45.14 629.188 45.2133 629.321 45.36C629.468 45.4933 629.541 45.6933 629.541 45.96V47.68L629.321 47.44C629.601 46.6667 630.055 46.0867 630.681 45.7C631.321 45.3 632.055 45.1 632.881 45.1C633.655 45.1 634.295 45.24 634.801 45.52C635.321 45.8 635.708 46.2267 635.961 46.8C636.215 47.36 636.341 48.0733 636.341 48.94V54.3C636.341 54.5667 636.268 54.7733 636.121 54.92C635.988 55.0667 635.795 55.14 635.541 55.14C635.275 55.14 635.068 55.0667 634.921 54.92C634.788 54.7733 634.721 54.5667 634.721 54.3V49.04C634.721 48.1333 634.541 47.4733 634.181 47.06C633.835 46.6333 633.275 46.42 632.501 46.42C631.608 46.42 630.895 46.7 630.361 47.26C629.841 47.8067 629.581 48.54 629.581 49.46V54.3C629.581 54.86 629.308 55.14 628.761 55.14ZM643.229 55.18C642.469 55.18 641.829 55.0467 641.309 54.78C640.802 54.5 640.422 54.1 640.169 53.58C639.915 53.0467 639.789 52.4 639.789 51.64V46.54H638.449C638.222 46.54 638.049 46.4867 637.929 46.38C637.809 46.26 637.749 46.1 637.749 45.9C637.749 45.7 637.809 45.5467 637.929 45.44C638.049 45.3333 638.222 45.28 638.449 45.28H639.789V42.98C639.789 42.7133 639.862 42.5133 640.009 42.38C640.155 42.2333 640.355 42.16 640.609 42.16C640.862 42.16 641.055 42.2333 641.189 42.38C641.335 42.5133 641.409 42.7133 641.409 42.98V45.28H643.929C644.155 45.28 644.329 45.3333 644.449 45.44C644.569 45.5467 644.629 45.7 644.629 45.9C644.629 46.1 644.569 46.26 644.449 46.38C644.329 46.4867 644.155 46.54 643.929 46.54H641.409V51.48C641.409 52.24 641.569 52.82 641.889 53.22C642.209 53.6067 642.729 53.8 643.449 53.8C643.702 53.8 643.915 53.7733 644.089 53.72C644.275 53.6667 644.429 53.64 644.549 53.64C644.669 53.6267 644.769 53.6667 644.849 53.76C644.929 53.8533 644.969 54.0133 644.969 54.24C644.969 54.4 644.935 54.5467 644.869 54.68C644.815 54.8133 644.715 54.9067 644.569 54.96C644.409 55.0133 644.195 55.06 643.929 55.1C643.675 55.1533 643.442 55.18 643.229 55.18Z" fill="#363636"/>
<line x1="320.5" y1="15" x2="320.5" y2="82" stroke="#3C4C66" stroke-width="3"/>
</svg>
