<svg width="30" height="25" viewBox="0 0 30 25" fill="none" xmlns="http://www.w3.org/2000/svg">
<path d="M30 2.9592C28.8958 3.46207 27.7097 3.80046 26.4648 3.9531C27.7362 3.17218 28.7112 1.93573 29.1704 0.461451C27.982 1.18439 26.6644 1.70974 25.2613 1.99371C24.1387 0.766719 22.5395 0 20.7696 0C17.3705 0 14.6152 2.82668 14.6152 6.31123C14.6152 6.80581 14.6706 7.28856 14.7744 7.74883C9.65963 7.48616 5.12519 4.97302 2.08838 1.15363C1.55994 2.086 1.25649 3.16981 1.25649 4.32817C1.25649 6.51711 2.34222 8.44929 3.99331 9.58043C2.98489 9.5473 2.03531 9.26334 1.20572 8.79123C1.20572 8.81845 1.20572 8.8433 1.20572 8.87051C1.20572 11.9291 3.32641 14.4801 6.14284 15.0587C5.62709 15.203 5.0825 15.2799 4.5206 15.2799C4.12484 15.2799 3.73832 15.2397 3.36333 15.1675C4.14676 17.6748 6.41975 19.5004 9.11273 19.5513C7.00704 21.2445 4.35329 22.2538 1.46879 22.2538C0.972655 22.2538 0.482289 22.2242 0 22.165C2.72413 23.9552 5.95823 25 9.43464 25C20.7557 25 26.9447 15.3829 26.9447 7.04245C26.9447 6.76913 26.939 6.49699 26.9274 6.22604C28.1308 5.33508 29.175 4.22405 30 2.9592Z" fill="#3C4C66"/>
</svg>
